<svg width="343" height="86" viewBox="0 0 343 86" fill="none" xmlns="http://www.w3.org/2000/svg">
<path d="M131.835 35.3125H124.369C124.233 34.3466 123.955 33.4886 123.534 32.7386C123.114 31.9773 122.574 31.3295 121.915 30.7955C121.256 30.2614 120.494 29.8523 119.631 29.5682C118.778 29.2841 117.852 29.142 116.852 29.142C115.045 29.142 113.472 29.5909 112.131 30.4886C110.79 31.375 109.75 32.6705 109.011 34.375C108.273 36.0682 107.903 38.125 107.903 40.5455C107.903 43.0341 108.273 45.125 109.011 46.8182C109.761 48.5114 110.807 49.7898 112.148 50.6534C113.489 51.517 115.04 51.9489 116.801 51.9489C117.79 51.9489 118.705 51.8182 119.545 51.5568C120.398 51.2955 121.153 50.9148 121.812 50.4148C122.472 49.9034 123.017 49.2841 123.449 48.5568C123.892 47.8295 124.199 47 124.369 46.0682L131.835 46.1023C131.642 47.7045 131.159 49.25 130.386 50.7386C129.625 52.2159 128.597 53.5398 127.301 54.7102C126.017 55.8693 124.483 56.7898 122.699 57.4716C120.926 58.142 118.92 58.4773 116.682 58.4773C113.568 58.4773 110.784 57.7727 108.33 56.3636C105.886 54.9545 103.955 52.9148 102.534 50.2443C101.125 47.5739 100.42 44.3409 100.42 40.5455C100.42 36.7386 101.136 33.5 102.568 30.8295C104 28.1591 105.943 26.125 108.398 24.7273C110.852 23.3182 113.614 22.6136 116.682 22.6136C118.705 22.6136 120.58 22.8977 122.307 23.4659C124.045 24.0341 125.585 24.8636 126.926 25.9545C128.267 27.0341 129.358 28.358 130.199 29.9261C131.051 31.4943 131.597 33.2898 131.835 35.3125ZM144.457 58.4943C142.787 58.4943 141.298 58.2045 139.991 57.625C138.685 57.0341 137.651 56.1648 136.889 55.017C136.139 53.858 135.764 52.4148 135.764 50.6875C135.764 49.233 136.031 48.0114 136.565 47.0227C137.099 46.0341 137.827 45.2386 138.747 44.6364C139.668 44.0341 140.713 43.5795 141.884 43.2727C143.065 42.9659 144.304 42.75 145.599 42.625C147.122 42.4659 148.349 42.3182 149.281 42.1818C150.213 42.0341 150.889 41.8182 151.31 41.5341C151.73 41.25 151.94 40.8295 151.94 40.2727V40.1705C151.94 39.0909 151.599 38.2557 150.918 37.6648C150.247 37.0739 149.293 36.7784 148.054 36.7784C146.747 36.7784 145.707 37.0682 144.935 37.6477C144.162 38.2159 143.651 38.9318 143.401 39.7955L136.685 39.25C137.026 37.6591 137.696 36.2841 138.696 35.125C139.696 33.9545 140.986 33.0568 142.565 32.4318C144.156 31.7955 145.997 31.4773 148.088 31.4773C149.543 31.4773 150.935 31.6477 152.264 31.9886C153.605 32.3295 154.793 32.858 155.827 33.5739C156.872 34.2898 157.696 35.2102 158.298 36.3352C158.901 37.4489 159.202 38.7841 159.202 40.3409V58H152.315V54.3693H152.111C151.69 55.1875 151.128 55.9091 150.423 56.5341C149.719 57.1477 148.872 57.6307 147.884 57.983C146.895 58.3239 145.753 58.4943 144.457 58.4943ZM146.537 53.483C147.605 53.483 148.548 53.2727 149.366 52.8523C150.185 52.4205 150.827 51.8409 151.293 51.1136C151.759 50.3864 151.991 49.5625 151.991 48.642V45.8636C151.764 46.0114 151.452 46.1477 151.054 46.2727C150.668 46.3864 150.23 46.4943 149.741 46.5966C149.253 46.6875 148.764 46.7727 148.276 46.8523C147.787 46.9205 147.344 46.983 146.946 47.0398C146.094 47.1648 145.349 47.3636 144.713 47.6364C144.077 47.9091 143.582 48.2784 143.23 48.7443C142.878 49.1989 142.702 49.767 142.702 50.4489C142.702 51.4375 143.06 52.1932 143.776 52.7159C144.503 53.2273 145.423 53.483 146.537 53.483ZM164.835 58V31.8182H171.875V36.3864H172.148C172.625 34.7614 173.426 33.5341 174.551 32.7045C175.676 31.8636 176.972 31.4432 178.438 31.4432C178.801 31.4432 179.193 31.4659 179.614 31.5114C180.034 31.5568 180.403 31.6193 180.722 31.6989V38.142C180.381 38.0398 179.909 37.9489 179.307 37.8693C178.705 37.7898 178.153 37.75 177.653 37.75C176.585 37.75 175.631 37.983 174.79 38.4489C173.96 38.9034 173.301 39.5398 172.812 40.358C172.335 41.1761 172.097 42.1193 172.097 43.1875V58H164.835ZM184.612 58V23.0909H191.874V36.2159H192.095C192.413 35.5114 192.874 34.7955 193.476 34.0682C194.089 33.3295 194.885 32.7159 195.862 32.2273C196.851 31.7273 198.078 31.4773 199.544 31.4773C201.453 31.4773 203.214 31.9773 204.828 32.9773C206.442 33.9659 207.732 35.4602 208.697 37.4602C209.663 39.4489 210.146 41.9432 210.146 44.9432C210.146 47.8636 209.675 50.3295 208.732 52.3409C207.8 54.3409 206.527 55.858 204.913 56.892C203.311 57.9148 201.516 58.4261 199.527 58.4261C198.118 58.4261 196.919 58.1932 195.93 57.7273C194.953 57.2614 194.152 56.6761 193.527 55.9716C192.902 55.2557 192.425 54.5341 192.095 53.8068H191.771V58H184.612ZM191.72 44.9091C191.72 46.4659 191.936 47.8239 192.368 48.983C192.8 50.142 193.425 51.0455 194.243 51.6932C195.061 52.3295 196.055 52.6477 197.226 52.6477C198.408 52.6477 199.408 52.3239 200.226 51.6761C201.044 51.017 201.663 50.108 202.084 48.9489C202.516 47.7784 202.732 46.4318 202.732 44.9091C202.732 43.3977 202.521 42.0682 202.101 40.9205C201.68 39.7727 201.061 38.875 200.243 38.2273C199.425 37.5795 198.419 37.2557 197.226 37.2557C196.044 37.2557 195.044 37.5682 194.226 38.1932C193.419 38.8182 192.8 39.7045 192.368 40.8523C191.936 42 191.72 43.3523 191.72 44.9091ZM226.821 58.5114C224.173 58.5114 221.884 57.9489 219.952 56.8239C218.031 55.6875 216.548 54.108 215.503 52.0852C214.457 50.0511 213.935 47.6932 213.935 45.0114C213.935 42.3068 214.457 39.9432 215.503 37.9205C216.548 35.8864 218.031 34.3068 219.952 33.1818C221.884 32.0455 224.173 31.4773 226.821 31.4773C229.469 31.4773 231.753 32.0455 233.673 33.1818C235.605 34.3068 237.094 35.8864 238.139 37.9205C239.185 39.9432 239.707 42.3068 239.707 45.0114C239.707 47.6932 239.185 50.0511 238.139 52.0852C237.094 54.108 235.605 55.6875 233.673 56.8239C231.753 57.9489 229.469 58.5114 226.821 58.5114ZM226.855 52.8864C228.06 52.8864 229.065 52.5455 229.872 51.8636C230.679 51.1705 231.287 50.2273 231.696 49.0341C232.116 47.8409 232.327 46.483 232.327 44.9602C232.327 43.4375 232.116 42.0795 231.696 40.8864C231.287 39.6932 230.679 38.75 229.872 38.0568C229.065 37.3636 228.06 37.017 226.855 37.017C225.639 37.017 224.616 37.3636 223.787 38.0568C222.969 38.75 222.349 39.6932 221.929 40.8864C221.52 42.0795 221.315 43.4375 221.315 44.9602C221.315 46.483 221.52 47.8409 221.929 49.0341C222.349 50.2273 222.969 51.1705 223.787 51.8636C224.616 52.5455 225.639 52.8864 226.855 52.8864ZM251.69 42.8636V58H244.429V31.8182H251.349V36.4375H251.656C252.236 34.9148 253.207 33.7102 254.571 32.8239C255.935 31.9261 257.588 31.4773 259.531 31.4773C261.349 31.4773 262.935 31.875 264.287 32.6705C265.639 33.4659 266.69 34.6023 267.44 36.0795C268.19 37.5455 268.565 39.2955 268.565 41.3295V58H261.304V42.625C261.315 41.0227 260.906 39.7727 260.077 38.875C259.247 37.9659 258.105 37.5114 256.651 37.5114C255.673 37.5114 254.81 37.7216 254.06 38.142C253.321 38.5625 252.741 39.1761 252.321 39.983C251.912 40.7784 251.702 41.7386 251.69 42.8636Z" fill="#241C2D"/>
<path d="M274.425 23.0909H283.527L293.141 46.5455H293.55L303.163 23.0909H312.266V58H305.107V35.2784H304.817L295.783 57.8295H290.908L281.874 35.1932H281.584V58H274.425V23.0909ZM318.347 58V23.0909H325.727V51.9148H340.693V58H318.347Z" fill="#655BEF"/>
<path d="M84.5 42.9861C84.5 65.8978 65.9203 84.4723 43 84.4723C20.0797 84.4723 1.5 65.8978 1.5 42.9861C1.5 20.0744 20.0797 1.5 43 1.5C65.9203 1.5 84.5 20.0744 84.5 42.9861Z" stroke="#655BEF" stroke-width="3"/>
<path d="M65.5 43.504C65.5 55.0214 62.8586 65.3744 58.6647 72.7956C54.4449 80.2625 48.8484 84.4723 43 84.4723C37.1516 84.4723 31.5551 80.2625 27.3353 72.7956C23.1414 65.3744 20.5 55.0214 20.5 43.504C20.5 31.9867 23.1414 21.6337 27.3353 14.2125C31.5551 6.74561 37.1516 2.5358 43 2.5358C48.8484 2.5358 54.4449 6.74561 58.6647 14.2125C62.8586 21.6337 65.5 31.9867 65.5 43.504Z" stroke="#655BEF" stroke-width="3"/>
<path d="M43 20.1446C54.0939 20.1446 64.0653 22.8741 71.2137 27.2084C78.3895 31.5593 82.5 37.3654 82.5 43.504C82.5 49.6427 78.3895 55.4488 71.2137 59.7997C64.0653 64.1339 54.0939 66.8635 43 66.8635C31.9061 66.8635 21.9347 64.1339 14.7863 59.7997C7.6105 55.4488 3.5 49.6427 3.5 43.504C3.5 37.3654 7.6105 31.5593 14.7863 27.2084C21.9347 22.8741 31.9061 20.1446 43 20.1446Z" stroke="#655BEF" stroke-width="3"/>
<line x1="43" y1="86" x2="43" y2="0.0277252" stroke="#655BEF" stroke-width="3"/>
</svg>
